<svg width="24" height="24" viewBox="0 0 24 24" fill="none" xmlns="http://www.w3.org/2000/svg">
<path d="M12 24C18.6274 24 24 18.6274 24 12C24 5.37258 18.6274 0 12 0C5.37258 0 0 5.37258 0 12C0 18.6274 5.37258 24 12 24Z" fill="#253952"/>
<path d="M20.1563 18.1103C19.705 18.6537 18.9864 19.398 17.9463 20.0461C15.5274 21.5525 13.0838 21.4674 11.6727 21.4184C8.25162 21.2992 5.92807 19.9097 5.48373 19.6354C4.73101 19.171 4.15678 18.6981 3.7643 18.3421C4.15771 18.2683 4.63523 18.1141 4.77773 17.7534C4.98892 17.2189 4.35255 16.5175 4.14463 16.2643C2.67097 14.4664 2.61677 11.0317 3.56619 8.83853C3.7657 8.37737 4.62868 6.38368 6.68405 5.72721C6.96439 5.6375 9.12909 4.98664 10.4995 6.32434C11.7447 7.53962 11.4064 9.49126 11.3634 9.71693C11.2989 10.058 11.1989 10.3346 11.1153 10.5299C11.3625 10.8962 11.6498 11.2775 11.9834 11.6616C12.0872 11.7812 12.1909 11.8956 12.2941 12.0059C12.646 11.506 12.9983 11.006 13.3501 10.5066C13.2786 10.4047 13.194 10.2655 13.1216 10.0907C13.1216 10.0907 13.0441 9.90336 13.0006 9.69264C12.9558 9.47584 12.6591 7.30366 14.122 6.13464C15.0448 5.39734 16.1591 5.45762 16.4343 5.47631C18.4803 5.61507 20.1474 7.51392 20.7922 9.24876C21.601 11.4251 21.2791 14.6322 19.876 16.1849C19.6517 16.433 19.013 17.067 19.1915 17.5576C19.3139 17.8945 19.7765 18.0398 20.1558 18.1099L20.1563 18.1103ZM16.8338 8.47782C16.6801 8.48997 16.4189 8.66846 16.318 8.7834C15.4284 9.7987 16.7212 11.6859 17.729 10.6963C18.4761 9.9627 17.957 8.38811 16.8338 8.47782ZM7.12419 10.7439C7.32837 10.993 7.64702 11.1401 7.96942 11.0869C9.13517 10.8944 9.14592 8.74508 7.95867 8.59977C6.89571 8.46941 6.53547 10.0258 7.12419 10.7444V10.7439Z" fill="white"/>
<path d="M8.58544 8.77438C9.65027 9.83687 8.35322 12.031 7.15897 11.0059C6.27356 10.2462 6.73379 8.45666 7.98925 8.47301C8.16119 8.47535 8.46489 8.65383 8.58544 8.77438ZM7.9229 10.2144C8.39107 10.2107 8.39387 9.47663 7.96916 9.48037C7.51781 9.48411 7.49725 10.2181 7.9229 10.2144Z" fill="black"/>
<path d="M7.95443 10.2248C8.16293 10.2248 8.33196 10.0558 8.33196 9.84725C8.33196 9.63875 8.16293 9.46973 7.95443 9.46973C7.74593 9.46973 7.5769 9.63875 7.5769 9.84725C7.5769 10.0558 7.74593 10.2248 7.95443 10.2248Z" fill="white"/>
<path d="M17.0644 8.30106C18.3185 8.3576 18.6745 10.1705 17.7466 10.8779C16.4948 11.832 15.3272 9.5668 16.4514 8.56739C16.5789 8.45385 16.8924 8.29312 17.0644 8.30106ZM17.0261 9.30749C16.6023 9.27945 16.5626 10.0125 17.0293 10.0429C17.4541 10.071 17.476 9.33692 17.0261 9.30749Z" fill="black"/>
<path d="M17.0182 10.0529C17.2267 10.0529 17.3957 9.88388 17.3957 9.67538C17.3957 9.46688 17.2267 9.29785 17.0182 9.29785C16.8096 9.29785 16.6406 9.46688 16.6406 9.67538C16.6406 9.88388 16.8096 10.0529 17.0182 10.0529Z" fill="white"/>
</svg>
