<svg width="118" height="118" viewBox="0 0 118 118" fill="none" xmlns="http://www.w3.org/2000/svg">
<g filter="url(#filter0_d_440_3285)">
<rect x="27" y="19" width="64" height="64" rx="32" fill="white" shape-rendering="crispEdges"/>
<rect x="25.5" y="17.5" width="67" height="67" rx="33.5" stroke="#6DA8DC" stroke-width="3" shape-rendering="crispEdges"/>
<path d="M59 79C74.464 79 87 66.464 87 51C87 35.536 74.464 23 59 23C43.536 23 31 35.536 31 51C31 66.464 43.536 79 59 79Z" fill="#253952"/>
<path d="M78.0314 65.2575C76.9782 66.5254 75.3015 68.2621 72.8747 69.7742C67.2306 73.2891 61.5288 73.0907 58.2363 72.9762C50.2538 72.6982 44.8322 69.4559 43.7954 68.8159C42.039 67.7323 40.6991 66.629 39.7834 65.7982C40.7013 65.626 41.8155 65.2662 42.148 64.4245C42.6408 63.1773 41.1559 61.5409 40.6708 60.95C37.2323 56.7549 37.1058 48.7407 39.3211 43.6232C39.7866 42.5472 41.8003 37.8952 46.5961 36.3635C47.2503 36.1542 52.3012 34.6355 55.4988 37.7568C58.4042 40.5924 57.6149 45.1463 57.5146 45.6728C57.3642 46.4687 57.1309 47.1141 56.9357 47.5698C57.5124 48.4245 58.1829 49.3142 58.9613 50.2103C59.2034 50.4894 59.4454 50.7565 59.6863 51.0138C60.5073 49.8473 61.3293 48.6807 62.1502 47.5153C61.9834 47.2776 61.7861 46.9528 61.6171 46.545C61.6171 46.545 61.4361 46.1078 61.3347 45.6161C61.2301 45.1103 60.5378 40.0419 63.9513 37.3142C66.1044 35.5938 68.7046 35.7344 69.3467 35.778C74.1208 36.1018 78.0107 40.5325 79.5152 44.5804C81.4023 49.6587 80.6512 57.1419 77.3773 60.7647C76.854 61.3436 75.3636 62.823 75.7801 63.9677C76.0657 64.7538 77.1451 65.0928 78.0303 65.2564L78.0314 65.2575ZM70.2789 42.7816C69.9202 42.8099 69.3108 43.2264 69.0753 43.4946C66.9995 45.8636 70.0161 50.267 72.3677 47.9579C74.111 46.2463 72.8997 42.5723 70.2789 42.7816ZM47.6231 48.0691C48.0995 48.6502 48.8431 48.9936 49.5953 48.8694C52.3154 48.4202 52.3405 43.4052 49.5702 43.0661C47.09 42.762 46.2494 46.3935 47.6231 48.0702V48.0691Z" fill="white"/>
<path d="M51.0328 43.4732C53.5174 45.9524 50.4909 51.072 47.7043 48.6801C45.6384 46.9074 46.7122 42.7319 49.6417 42.77C50.0429 42.7755 50.7515 43.1919 51.0328 43.4732ZM49.4868 46.8333C50.5792 46.8245 50.5858 45.1118 49.5948 45.1205C48.5416 45.1293 48.4937 46.842 49.4868 46.8333Z" fill="black"/>
<path d="M49.5603 46.8579C50.0468 46.8579 50.4412 46.4635 50.4412 45.977C50.4412 45.4905 50.0468 45.0961 49.5603 45.0961C49.0738 45.0961 48.6794 45.4905 48.6794 45.977C48.6794 46.4635 49.0738 46.8579 49.5603 46.8579Z" fill="white"/>
<path d="M70.8161 42.3707C73.7423 42.5026 74.573 46.7326 72.4078 48.3832C69.4872 50.6094 66.7627 45.324 69.3858 42.9921C69.6834 42.7272 70.4149 42.3521 70.8161 42.3707ZM70.7267 44.719C69.7379 44.6536 69.6452 46.3641 70.7344 46.435C71.7254 46.5004 71.7766 44.7877 70.7267 44.719Z" fill="black"/>
<path d="M70.7084 46.4584C71.1949 46.4584 71.5893 46.0641 71.5893 45.5775C71.5893 45.091 71.1949 44.6967 70.7084 44.6967C70.2219 44.6967 69.8275 45.091 69.8275 45.5775C69.8275 46.0641 70.2219 46.4584 70.7084 46.4584Z" fill="white"/>
</g>
<defs>
<filter id="filter0_d_440_3285" x="0" y="0" width="118" height="118" filterUnits="userSpaceOnUse" color-interpolation-filters="sRGB">
<feFlood flood-opacity="0" result="BackgroundImageFix"/>
<feColorMatrix in="SourceAlpha" type="matrix" values="0 0 0 0 0 0 0 0 0 0 0 0 0 0 0 0 0 0 127 0" result="hardAlpha"/>
<feOffset dy="8"/>
<feGaussianBlur stdDeviation="12"/>
<feComposite in2="hardAlpha" operator="out"/>
<feColorMatrix type="matrix" values="0 0 0 0 0 0 0 0 0 0 0 0 0 0 0 0 0 0 0.4 0"/>
<feBlend mode="normal" in2="BackgroundImageFix" result="effect1_dropShadow_440_3285"/>
<feBlend mode="normal" in="SourceGraphic" in2="effect1_dropShadow_440_3285" result="shape"/>
</filter>
</defs>
</svg>
