<svg width="32" height="32" viewBox="0 0 32 32" fill="none" xmlns="http://www.w3.org/2000/svg">
<path d="M22.6665 4H9.33317C8.62593 4 7.94765 4.28095 7.44755 4.78105C6.94746 5.28115 6.6665 5.95942 6.6665 6.66667V26.8507C6.66654 26.9674 6.69724 27.0821 6.75552 27.1833C6.8138 27.2844 6.89762 27.3685 6.9986 27.4271C7.09958 27.4857 7.21417 27.5167 7.33092 27.5171C7.44766 27.5175 7.56246 27.4872 7.66384 27.4293L14.6772 23.4227C15.08 23.1926 15.5359 23.0715 15.9998 23.0715C16.4638 23.0715 16.9197 23.1926 17.3225 23.4227L24.3358 27.4307C24.4373 27.4886 24.5522 27.5189 24.6691 27.5184C24.7859 27.518 24.9006 27.4868 25.0017 27.4281C25.1027 27.3693 25.1865 27.2851 25.2447 27.1837C25.3028 27.0824 25.3334 26.9675 25.3332 26.8507V6.66667C25.3332 5.95942 25.0522 5.28115 24.5521 4.78105C24.052 4.28095 23.3737 4 22.6665 4Z" stroke="#91BEE5" stroke-width="2" stroke-linecap="round" stroke-linejoin="round"/>
</svg>
