<svg width="20" height="20" viewBox="0 0 20 20" fill="none" xmlns="http://www.w3.org/2000/svg">
<path d="M6.66666 2.5H4.99999C4.55797 2.5 4.13404 2.67559 3.82148 2.98816C3.50892 3.30072 3.33333 3.72464 3.33333 4.16667V15.8333C3.33333 16.2754 3.50892 16.6993 3.82148 17.0118C4.13404 17.3244 4.55797 17.5 4.99999 17.5H15C15.442 17.5 15.8659 17.3244 16.1785 17.0118C16.4911 16.6993 16.6667 16.2754 16.6667 15.8333V4.16667C16.6667 3.72464 16.4911 3.30072 16.1785 2.98816C15.8659 2.67559 15.442 2.5 15 2.5H11.6667M6.66666 2.5V10L9.16666 7.5L11.6667 10V2.5M6.66666 2.5H11.6667" stroke="black" stroke-width="1.8" stroke-linecap="round" stroke-linejoin="round"/>
</svg>
