<svg width="16" height="16" viewBox="0 0 16 16" fill="none" xmlns="http://www.w3.org/2000/svg">
<path d="M2.66669 4.66665V5.99998H13.3334V4.66665C13.3334 4.31302 13.1929 3.97389 12.9428 3.72384C12.6928 3.47379 12.3536 3.33331 12 3.33331H4.00002C3.6464 3.33331 3.30726 3.47379 3.05721 3.72384C2.80716 3.97389 2.66669 4.31302 2.66669 4.66665Z" fill="#485D81"/>
<path d="M10.6667 3.33333H12C12.3536 3.33333 12.6928 3.47381 12.9428 3.72386C13.1929 3.97391 13.3334 4.31304 13.3334 4.66667V6H2.66669V4.66667C2.66669 4.31304 2.80716 3.97391 3.05721 3.72386C3.30726 3.47381 3.6464 3.33333 4.00002 3.33333H5.33335M10.6667 3.33333V2M10.6667 3.33333H5.33335M5.33335 3.33333V2M2.66669 6.33333V12.6667C2.66669 13.0203 2.80716 13.3594 3.05721 13.6095C3.30726 13.8595 3.6464 14 4.00002 14H12C12.3536 14 12.6928 13.8595 12.9428 13.6095C13.1929 13.3594 13.3334 13.0203 13.3334 12.6667V6.33333" stroke="#485D81" stroke-width="2" stroke-linecap="round" stroke-linejoin="round"/>
</svg>
