<svg width="18" height="18" viewBox="0 0 18 18" fill="none" xmlns="http://www.w3.org/2000/svg">
<path fill-rule="evenodd" clip-rule="evenodd" d="M5.13752 3.59025C6.54827 2.58 8.21852 2.25 9.34202 2.25H10.0958C10.2947 2.25 10.4854 2.32902 10.6261 2.46967C10.7668 2.61032 10.8458 2.80109 10.8458 3V5.25H12.3563C12.5552 5.25 12.7459 5.32902 12.8866 5.46967C13.0273 5.61032 13.1063 5.80109 13.1063 6V7.5H15.3705C15.5694 7.5 15.7602 7.57902 15.9009 7.71967C16.0415 7.86032 16.1205 8.05109 16.1205 8.25V9C16.1205 11.6272 15.0743 13.356 13.6478 14.4045C12.2603 15.4245 10.5825 15.75 9.34277 15.75C8.10302 15.75 6.42527 15.4245 5.03627 14.4045C3.61052 13.356 2.56427 11.6272 2.56427 9C2.56427 6.354 3.68927 4.629 5.13752 3.59025ZM7.08152 5.25C6.88261 5.25 6.69184 5.32902 6.55119 5.46967C6.41054 5.61032 6.33152 5.80109 6.33152 6C6.33152 6.19891 6.41054 6.38968 6.55119 6.53033C6.69184 6.67098 6.88261 6.75 7.08152 6.75C7.28043 6.75 7.47195 6.67098 7.6126 6.53033C7.75325 6.38968 7.83227 6.19891 7.83227 6C7.83227 5.80109 7.75325 5.61032 7.6126 5.46967C7.47195 5.32902 7.28043 5.25 7.08152 5.25ZM4.82402 9C4.82402 8.80109 4.90304 8.61032 5.04369 8.46967C5.18434 8.32902 5.37511 8.25 5.57402 8.25H5.57552C5.77443 8.25 5.9652 8.32902 6.10585 8.46967C6.2465 8.61032 6.32552 8.80109 6.32552 9C6.32552 9.19891 6.2465 9.38968 6.10585 9.53033C5.9652 9.67098 5.77443 9.75 5.57552 9.75H5.57477C5.37586 9.75 5.18509 9.67098 5.04444 9.53033C4.90379 9.38968 4.82402 9.19891 4.82402 9ZM9.34202 9C9.14311 9 8.95234 9.07902 8.81169 9.21967C8.67104 9.36032 8.59202 9.55109 8.59202 9.75C8.59202 9.94891 8.67104 10.1397 8.81169 10.2803C8.95234 10.421 9.14311 10.5 9.34202 10.5C9.54093 10.5 9.73245 10.421 9.8731 10.2803C10.0138 10.1397 10.0928 9.94891 10.0928 9.75C10.0928 9.55109 10.0138 9.36032 9.8731 9.21967C9.73245 9.07902 9.54093 9 9.34202 9ZM7.08452 12C7.08452 11.8011 7.16354 11.6103 7.30419 11.4697C7.44484 11.329 7.63561 11.25 7.83452 11.25H7.83602C8.03493 11.25 8.2257 11.329 8.36635 11.4697C8.507 11.6103 8.58602 11.8011 8.58602 12C8.58602 12.1989 8.507 12.3897 8.36635 12.5303C8.2257 12.671 8.03493 12.75 7.83602 12.75H7.83527C7.63636 12.75 7.44559 12.671 7.30494 12.5303C7.16429 12.3897 7.08452 12.1989 7.08452 12ZM12.3563 10.5C12.1574 10.5 11.9666 10.579 11.8259 10.7197C11.6853 10.8603 11.6063 11.0511 11.6063 11.25C11.6063 11.4489 11.6853 11.6397 11.8259 11.7803C11.9666 11.921 12.1574 12 12.3563 12C12.5552 12 12.7459 11.921 12.8866 11.7803C13.0273 11.6397 13.1063 11.4489 13.1063 11.25C13.1063 11.0511 13.0273 10.8603 12.8866 10.7197C12.7459 10.579 12.5552 10.5 12.3563 10.5Z" fill="#4892D3"/>
</svg>
