<svg width="18" height="18" viewBox="0 0 18 18" fill="none" xmlns="http://www.w3.org/2000/svg">
<path d="M4.875 1.5C5.6395 1.5 6.26825 1.871 6.76125 2.613C7.25375 3.3545 7.5 4.2335 7.5 5.25C7.5 5.83 7.41575 6.416 7.24725 7.008C7.07825 7.6005 6.90075 8.10675 6.71475 8.52675L3.435 9.3225C3.0745 8.739 2.787 8.11575 2.5725 7.45275C2.358 6.78975 2.2505 6.0555 2.25 5.25C2.25 4.174 2.499 3.28 2.997 2.568C3.495 1.856 4.121 1.5 4.875 1.5ZM5.90625 12.75C5.24975 12.75 4.72725 12.4913 4.33875 11.9738C3.95125 11.4558 3.755 10.8 3.75 10.0065L6.8715 9.2625C7.0195 9.5135 7.16125 9.79025 7.29675 10.0927C7.43225 10.3952 7.5 10.6997 7.5 11.0063C7.5 11.5072 7.35025 11.9233 7.05075 12.2543C6.75125 12.5853 6.36975 12.7505 5.90625 12.75ZM13.125 5.25C13.879 5.25 14.505 5.606 15.003 6.318C15.501 7.03 15.75 7.924 15.75 9C15.75 9.8335 15.6333 10.5868 15.3998 11.2597C15.1663 11.9327 14.8595 12.5753 14.4795 13.1873L11.256 12.2197C11.08 11.7992 10.91 11.3 10.746 10.722C10.582 10.1445 10.5 9.5705 10.5 9C10.5 7.9835 10.7465 7.1045 11.2395 6.363C11.7315 5.621 12.36 5.25 13.125 5.25ZM12.0938 16.5C11.6302 16.5 11.2487 16.3345 10.9493 16.0035C10.6497 15.6725 10.5 15.257 10.5 14.757C10.5 14.4405 10.5725 14.1263 10.7175 13.8143C10.8625 13.5023 11.0092 13.216 11.1578 12.9555L14.2455 13.902C14.2215 14.637 14.0163 15.254 13.6298 15.753C13.2432 16.251 12.7312 16.5 12.0938 16.5Z" fill="#4892D3"/>
</svg>
