<svg width="16" height="16" viewBox="0 0 16 16" fill="none" xmlns="http://www.w3.org/2000/svg">
<path fill-rule="evenodd" clip-rule="evenodd" d="M13.4033 12.7407C13.3844 13.081 13.2359 13.4011 12.9883 13.6353C12.7407 13.8695 12.4128 14 12.072 14H3.92802C3.58719 14 3.25931 13.8695 3.01171 13.6353C2.76411 13.4011 2.6156 13.081 2.59668 12.7407L2.07835 3.40733C2.06829 3.22631 2.09525 3.04513 2.15759 2.87488C2.21993 2.70463 2.31633 2.54889 2.44091 2.41716C2.56549 2.28544 2.71563 2.1805 2.88214 2.10878C3.04865 2.03705 3.22804 2.00004 3.40935 2H12.5907C12.772 1.99999 12.9514 2.03697 13.118 2.10868C13.2845 2.18039 13.4347 2.28531 13.5593 2.41704C13.684 2.54877 13.7804 2.70453 13.8427 2.87481C13.9051 3.04508 13.9321 3.22628 13.922 3.40733L13.4033 12.7407ZM11.4147 5.92633C11.688 5.74633 11.7567 5.38933 11.5323 5.157C11.1519 4.76421 10.7072 4.43932 10.2174 4.19633C9.53732 3.85899 8.79037 3.67824 8.03135 3.66733C7.27165 3.65482 6.51875 3.81221 5.82768 4.128C5.32943 4.3556 4.87349 4.66625 4.47935 5.04667C4.24702 5.272 4.30268 5.63067 4.56968 5.81933L6.00702 6.83467C6.27368 7.02333 6.64968 6.96233 6.92602 6.78633C6.99751 6.74146 7.07177 6.70116 7.14835 6.66567C7.39378 6.55368 7.65993 6.4943 7.92968 6.49133L9.06068 5.191C9.11868 5.12425 9.20081 5.08328 9.28901 5.07709C9.33269 5.07403 9.37654 5.07959 9.41806 5.09348C9.45959 5.10736 9.49797 5.12928 9.53102 5.158C9.56407 5.18672 9.59114 5.22166 9.61068 5.26084C9.63022 5.30001 9.64186 5.34266 9.64493 5.38633C9.64799 5.43001 9.64242 5.47386 9.62854 5.51538C9.61466 5.5569 9.59273 5.59528 9.56402 5.62833L8.68668 6.63667C8.80546 6.68594 8.91893 6.74714 9.02535 6.81933C9.29535 7.00367 9.66868 7.076 9.94202 6.896L11.4147 5.92633Z" fill="#485D81"/>
</svg>
