<svg width="195" height="57" viewBox="0 0 195 57" fill="none" xmlns="http://www.w3.org/2000/svg">
<path d="M146.318 15.049C145.454 14.4008 144.036 14.0768 142.068 14.0768C141.123 14.0768 140.249 14.1342 139.442 14.2523C138.635 14.3705 138.014 14.4886 137.582 14.6068V38.6248C137.582 40.4341 138.024 41.673 138.909 42.3414C139.793 43.0098 141.201 43.344 143.128 43.344C144.073 43.344 144.948 43.2866 145.755 43.1685C146.561 43.0503 147.179 42.9322 147.615 42.814V18.796C147.615 16.9461 147.183 15.6971 146.315 15.049H146.318Z" fill="#2B587F"/>
<path fill-rule="evenodd" clip-rule="evenodd" d="M4.78003 6.01233C6.74805 6.01233 8.16612 6.34676 9.03029 7.01515C9.89775 7.68694 10.3298 8.98328 10.3298 10.9107V20.4704H21.6585V6.54571C22.131 6.46808 22.8299 6.36006 23.7547 6.22166C24.6763 6.08664 25.5743 6.01596 26.4385 6.01596C28.4064 6.01596 29.8242 6.37027 30.6884 7.0791L30.6818 7.06921C31.5493 7.77812 31.9813 9.09468 31.9813 11.0221V33.1088C32.2169 33.1527 32.5066 33.1879 32.8355 33.1833C34.1283 33.1664 35.0803 32.5589 35.509 32.2787C37.3724 31.0601 38.0678 30.1352 40.2485 28.7478C40.3522 28.6818 40.4584 28.6142 40.5669 28.5454C40.5573 28.2668 40.5524 27.9843 40.5524 27.6978C40.5524 25.102 40.9743 22.8572 41.8216 20.9702C42.6655 19.0832 43.7997 17.5506 45.2141 16.3692C46.6285 15.1877 48.2118 14.3133 49.9638 13.7428C51.7158 13.1723 53.515 12.8853 55.3649 12.8853C58.1599 12.8854 60.5971 13.4287 62.6833 14.5089C64.7694 15.5925 66.3998 17.0678 67.5813 18.9346C68.7594 20.8046 69.3502 22.9583 69.3503 25.3955C69.3503 26.7323 68.9754 27.7554 68.2294 28.4643H68.2331C67.4836 29.1732 66.4404 29.6254 65.1036 29.8211L50.4566 32.0223C50.9292 33.3218 51.726 34.2637 52.8602 34.8375C54.2576 35.5464 55.9015 35.9007 57.5522 35.9007C59.2029 35.9007 60.7761 35.6847 62.2715 35.2526C63.7635 34.8171 64.9654 34.3478 65.8701 33.8347C65.8814 33.8418 65.8924 33.8493 65.9037 33.8565C65.8579 34.1922 65.8368 34.5465 65.8467 34.9216C65.8953 36.7409 66.6401 38.4978 67.3957 39.8463C67.4247 39.8981 67.4545 39.9491 67.4837 40C67.2672 40.3413 66.9948 40.6561 66.6665 40.9441C65.7011 41.7914 64.3745 42.4124 62.6833 42.804C60.9887 43.199 59.0444 43.3948 56.8401 43.3948C53.7716 43.3948 51.0067 42.8141 48.5492 41.6529C46.0884 40.4916 44.1407 38.7532 42.7061 36.4308C42.6347 36.3156 42.5656 36.1987 42.4977 36.0807C41.5888 36.8563 41.4312 37.3146 39.5127 38.7466C37.2138 40.4581 35.5967 41.1771 34.7798 41.5045C33.6658 41.9501 32.6901 42.2099 31.9846 42.3685C31.9756 42.3688 31.9576 42.3678 31.9316 42.3676C31.4986 42.4813 30.8471 42.596 29.9764 42.7097C29.0683 42.8279 28.1465 42.8851 27.2013 42.8851C25.1557 42.8851 23.721 42.5241 22.894 41.7949C22.067 41.0692 21.6552 39.7997 21.6552 37.9904V28.6093H10.3265V42.3587C9.89442 42.4768 9.22588 42.5949 8.3212 42.713C7.41317 42.8312 6.49164 42.8884 5.54648 42.8884C3.50092 42.8884 2.06624 42.5273 1.23918 41.7982C0.412137 41.0725 0 39.803 0 37.9937V6.54242C0.472596 6.46478 1.17168 6.35677 2.09662 6.21836C3.01809 6.08336 3.91593 6.01233 4.78003 6.01233ZM55.4255 20.2074C53.8525 20.2074 52.546 20.7171 51.503 21.7399C50.595 22.6311 50.0517 23.8496 49.8761 25.3955V25.3991L59.9118 23.7482C59.8308 22.9617 59.4392 22.1753 58.7304 21.3888C58.0215 20.6023 56.9986 20.2074 55.4255 20.2074Z" fill="#2B587F"/>
<path d="M82.4209 13.1652C86.7079 13.1652 90.1412 14.0392 92.7168 15.7911C95.2924 17.5431 96.582 20.2676 96.582 23.964V37.1827C96.582 38.2056 96.2951 39.0434 95.7246 39.6915C95.1542 40.3395 94.4758 40.8997 93.6895 41.3722C92.4303 42.1182 90.8939 42.6925 89.0879 43.0841C87.2787 43.4756 85.2129 43.6749 82.8906 43.6749C78.7589 43.6749 75.4438 42.8776 72.9492 41.2843C70.4513 39.6911 69.2023 37.2813 69.2021 34.0577C69.2021 31.3437 70.019 29.2568 71.6494 27.8019C73.2798 26.3472 75.7708 25.4425 79.1123 25.088L86.8428 24.2609V23.8488C86.8426 22.7081 86.3402 21.8909 85.3379 21.4015C84.3354 20.9087 82.8903 20.6623 81 20.6622C79.5451 20.6622 78.1001 20.821 76.6621 21.1349C75.2241 21.4488 73.9378 21.8439 72.7969 22.3165C72.2838 21.9621 71.8515 21.4216 71.4971 20.6925C71.1428 19.9635 70.9668 19.2074 70.9668 18.421C70.9668 16.5341 71.97 15.1972 73.9785 14.4073C75.1195 13.9753 76.4668 13.6612 78.0195 13.462C79.5721 13.2663 81.037 13.1681 82.4141 13.1681H82.4209V13.1652ZM82.6572 31.2247C81.5569 31.3024 80.6522 31.5388 79.9434 31.9337C79.2345 32.3287 78.8799 32.9167 78.8799 33.7032C78.88 34.4896 79.184 35.1308 79.7949 35.6202C80.4059 36.113 81.4354 36.3595 82.8936 36.3595V36.3566C83.5619 36.3566 84.3016 36.2889 85.1084 36.1505C85.915 36.0121 86.5157 35.8262 86.9072 35.59V30.8702L82.6572 31.2247Z" fill="#2B587F"/>
<path d="M120.289 6.75171C122.216 6.75174 123.614 7.08628 124.479 7.75464C125.346 8.42307 125.777 9.66166 125.777 11.4705V14.658H133.508C133.744 15.0529 133.971 15.5825 134.187 16.2507C134.403 16.9225 134.511 17.6488 134.511 18.4353C134.511 19.8124 134.203 20.8048 133.596 21.4158C132.988 22.0267 132.171 22.3308 131.148 22.3308H125.777V32.8357C125.777 33.8179 126.102 34.5367 126.75 34.989C127.398 35.4413 128.313 35.6677 129.494 35.6677C130.085 35.6677 130.693 35.6172 131.324 35.5193C131.952 35.4214 132.502 35.2931 132.975 35.1345V35.1306C133.329 35.5255 133.633 35.9984 133.89 36.5486C134.146 37.0988 134.274 37.7508 134.274 38.4968C134.274 39.9517 133.713 41.1637 132.593 42.1257C131.472 43.0876 129.494 43.5701 126.662 43.5701C123.199 43.5701 120.532 42.7838 118.665 41.2107C116.798 39.6376 115.863 37.0819 115.863 33.5408V7.34253C116.295 7.22438 116.917 7.09617 117.724 6.95776C118.527 6.82277 119.384 6.75171 120.289 6.75171Z" fill="#2B587F"/>
<path d="M112.35 13.5018C113.104 13.5018 114.343 13.5024 114.53 13.6708V21.3544C113.548 21.3544 112.505 21.4726 111.405 21.7089C110.301 21.9452 109.339 22.2997 108.512 22.7723V42.952C108.076 43.0701 107.459 43.1884 106.652 43.3065C105.846 43.4247 104.971 43.4813 104.025 43.4813C102.098 43.4813 100.69 43.1477 99.8057 42.4794C98.9213 41.811 98.4795 40.5718 98.4795 38.7626V21.2362C98.4795 20.0952 98.7835 19.1021 99.3945 18.2548C100.005 17.4077 100.802 16.672 101.784 16.0409C103.158 15.2173 104.771 14.5863 106.621 14.1542C108.471 13.7221 110.379 13.5057 112.347 13.5057L112.35 13.5018Z" fill="#2B587F"/>
<path d="M164.743 3.03809C167.653 3.03809 169.797 3.42317 171.174 4.18945H171.178C172.555 4.95572 173.243 6.26187 173.243 8.11133C173.243 8.89786 173.074 9.60747 172.74 10.2354C172.406 10.8665 172.041 11.3384 171.649 11.6523C170.9 11.4532 170.124 11.2878 169.317 11.1494C168.511 11.0144 167.579 10.9443 166.516 10.9443C164.824 10.9443 163.508 11.2313 162.562 11.8018C161.617 12.3723 161.145 13.3645 161.145 14.7822V16.2188C164.208 16.2385 167.274 16.2618 170.337 16.2812C171.015 16.2543 171.92 16.3179 172.875 16.6992C173.267 16.8545 173.773 17.0607 174.276 17.54C174.5 17.7516 174.673 17.9707 174.807 18.1719C175.201 18.741 175.521 19.47 175.765 20.3584C176.551 23.1129 177.337 25.8375 178.124 28.5312C178.911 31.225 179.677 33.9124 180.427 36.5859H180.663C181.291 34.7766 181.912 32.7878 182.523 30.624C183.134 28.4604 183.704 26.2493 184.234 23.9844C184.764 21.7228 185.207 19.5285 185.562 17.4053C186.23 17.0509 186.918 16.7773 187.627 16.5781C188.336 16.3824 189.082 16.2842 189.868 16.2842C191.245 16.2842 192.444 16.5782 193.467 17.1689C194.49 17.7597 195 18.7824 195 20.2373C195 21.4964 194.841 22.9515 194.527 24.6055C194.213 26.256 193.781 28.0078 193.228 29.8574C192.677 31.7073 192.045 33.5678 191.34 35.4346C190.631 37.3045 189.885 39.0934 189.099 40.8047C188.312 42.5161 187.526 44.0593 186.739 45.4365C184.535 49.251 182.49 52.0837 180.603 53.9336C178.716 55.7834 176.804 56.708 174.877 56.708C173.304 56.708 171.984 56.2147 170.924 55.2324C169.861 54.2502 169.233 52.9711 169.037 51.3984C169.864 50.6896 170.698 49.9227 171.545 49.0957C172.831 47.8401 173.455 47.4316 173.992 46.4697C174.269 45.9735 174.648 45.2741 174.631 44.3525C174.614 43.4717 174.245 42.8273 173.962 42.3379C172.747 40.2619 171.616 38.6044 171.454 38.2363L171.457 38.2324C170.866 36.8958 170.239 35.3499 169.57 33.6016C168.902 31.853 168.204 29.7465 167.475 27.2891C167.445 27.1883 167.416 27.086 167.386 26.9834C167.38 26.9871 167.375 26.9919 167.369 26.9951C167.264 26.3471 167.083 25.8406 166.928 25.4795C166.776 25.1284 166.688 24.9327 166.502 24.7471C166.073 24.3185 165.463 24.2884 164.97 24.2715C164.18 24.2445 163.065 24.2439 161.678 24.3418V43.0469C161.242 43.165 160.625 43.2833 159.818 43.4014C159.012 43.5195 158.137 43.5771 157.191 43.5771C155.264 43.5771 153.857 43.2424 152.973 42.5742C152.088 41.9058 151.646 40.6668 151.646 38.8574V14.4277C151.646 11.7511 152.233 9.58053 153.414 7.90625C154.592 6.23528 156.176 5.00626 158.164 4.21973C160.149 3.4332 162.343 3.03809 164.743 3.03809Z" fill="#2B587F"/>
<path d="M143.102 11.6868C139.179 10.6538 136.307 8.13894 135.837 5.11432C135.635 3.81131 135.898 1.3065 137.816 0.364683C139.385 -0.404974 141.519 -0.0133556 143.014 2.08632C143.271 1.76226 143.976 0.965599 145.178 0.614527C145.36 0.560516 147.197 0.0609275 148.638 1.1344C150.343 2.40365 150.137 4.86115 150.11 5.19872C149.874 8.01404 147.075 10.5593 143.102 11.6868Z" fill="#2B587F"/>
</svg>
