<svg width="18" height="18" viewBox="0 0 18 18" fill="none" xmlns="http://www.w3.org/2000/svg">
<path fill-rule="evenodd" clip-rule="evenodd" d="M11.6895 2.24997C11.9708 1.96876 12.3523 1.81079 12.75 1.81079C13.1477 1.81079 13.5292 1.96876 13.8105 2.24997L15.75 4.18947C16.0312 4.47076 16.1892 4.85222 16.1892 5.24997C16.1892 5.64772 16.0312 6.02918 15.75 6.31047L14.5605 7.49997L10.5 3.43947L11.6895 2.24997ZM9.4395 4.49997L2.6895 11.25C2.40818 11.5312 2.25008 11.9127 2.25 12.3105V14.25C2.25 14.6478 2.40804 15.0293 2.68934 15.3106C2.97064 15.5919 3.35218 15.75 3.75 15.75H5.6895C6.08729 15.7499 6.46876 15.5918 6.75 15.3105L13.5 8.56047L9.4395 4.49997Z" fill="#1E293B"/>
</svg>
