<svg width="35" height="35" viewBox="0 0 35 35" fill="none" xmlns="http://www.w3.org/2000/svg">
<path d="M20.5917 5.83329L23.2604 8.74996H29.1667V26.25H5.83335V8.74996H11.7396L14.4084 5.83329H20.5917ZM21.875 2.91663H13.125L10.4563 5.83329H5.83335C4.22919 5.83329 2.91669 7.14579 2.91669 8.74996V26.25C2.91669 27.8541 4.22919 29.1666 5.83335 29.1666H29.1667C30.7709 29.1666 32.0834 27.8541 32.0834 26.25V8.74996C32.0834 7.14579 30.7709 5.83329 29.1667 5.83329H24.5438L21.875 2.91663ZM17.5 13.125C19.9063 13.125 21.875 15.0937 21.875 17.5C21.875 19.9062 19.9063 21.875 17.5 21.875C15.0938 21.875 13.125 19.9062 13.125 17.5C13.125 15.0937 15.0938 13.125 17.5 13.125ZM17.5 10.2083C13.475 10.2083 10.2084 13.475 10.2084 17.5C10.2084 21.525 13.475 24.7916 17.5 24.7916C21.525 24.7916 24.7917 21.525 24.7917 17.5C24.7917 13.475 21.525 10.2083 17.5 10.2083Z" fill="white"/>
</svg>
