<svg width="24" height="24" viewBox="0 0 24 24" fill="none" xmlns="http://www.w3.org/2000/svg">
<path d="M14 21H9.99999L9.44899 18.52C8.7933 18.2635 8.18007 17.9095 7.62999 17.47L5.20599 18.233L3.20599 14.769L5.07799 13.051C4.9724 12.355 4.9724 11.647 5.07799 10.951L3.20599 9.232L5.20599 5.768L7.62999 6.531C8.18031 6.09107 8.79389 5.73675 9.44999 5.48L9.99999 3H14L14.551 5.48C15.2067 5.73653 15.8199 6.09051 16.37 6.53L18.794 5.767L20.794 9.231L18.922 10.949C19.0276 11.645 19.0276 12.353 18.922 13.049L20.794 14.767L18.794 18.231L16.37 17.468C15.82 17.9082 15.2068 18.2629 14.551 18.52L14 21Z" stroke="#738197" stroke-width="2" stroke-linecap="round" stroke-linejoin="round"/>
<path d="M12 15C13.6569 15 15 13.6569 15 12C15 10.3431 13.6569 9 12 9C10.3431 9 9 10.3431 9 12C9 13.6569 10.3431 15 12 15Z" stroke="#738197" stroke-width="2"/>
</svg>
